<svg width="793" height="793" viewBox="0 0 793 793" fill="none" xmlns="http://www.w3.org/2000/svg">
<path d="M396.5 793C615.481 793 793 615.481 793 396.5C793 177.519 615.481 0 396.5 0C177.519 0 0 177.519 0 396.5C0 615.481 177.519 793 396.5 793Z" fill="white"/>
<path d="M132 441.026C132 441.026 138.7 486.126 202.8 485.726C252.8 483.926 265.7 434.526 277.7 413.726C289.7 392.926 362.3 235.726 409.1 262.326C455.9 288.926 447.3 413.326 447.3 413.326L418.4 435.926L391.9 437.926L344.7 426.226C344.7 426.226 339.2 479.926 408.7 483.726C481.9 487.026 500.3 411.926 496.9 369.526C496.9 369.526 535.4 359.726 564.5 416.026C583.4 456.226 591.5 480.326 630 482.426C640.6 483.026 651.2 479.726 659.3 472.826C665.8 467.326 671.5 459.126 671.6 447.326C671.9 419.526 669 419.826 669 419.826L661.7 450.826L624 464.026C624 464.026 615.2 453.526 615.2 451.726C615.2 449.926 609.3 412.526 609.1 411.626C608.8 410.726 522.8 315.926 522.8 315.926C522.8 315.926 478.9 316.526 474.8 316.526C470.7 316.526 446.7 267.926 446.7 267.926L419.2 219.926C419.2 219.926 316.2 209.426 313.2 212.926C310.3 216.426 278.7 331.126 278.7 335.226C278.7 339.326 219.6 441.026 219.6 441.026L190.3 466.426L167.5 452.926L136.5 440.526L132 441.026Z" fill="#FF5596"/>
<path d="M672.8 418.126C672.6 417.726 671 414.126 667.8 407.826C659.3 391.326 639.3 356.726 603.4 315.226C553.1 257.026 466.8 289.026 466.8 289.026C466.8 289.026 445.3 144.526 352.8 151.226C279.9 156.426 179.5 291.226 140.1 348.226C129.9 363.026 123.8 372.626 123.3 373.226C119.9 381.626 118.1 390.726 118.1 400.326C118.1 440.626 150.8 473.326 191.1 473.326C218.8 473.326 242.8 457.926 255.2 435.326V435.226C255.2 435.226 255.2 435.126 255.3 435.126C255.4 434.826 255.7 434.326 256 433.626C256.1 433.526 256.1 433.326 256.2 433.226C256.4 432.726 256.7 432.226 257 431.626C257.1 431.326 257.3 430.926 257.5 430.526C258 429.526 258.5 428.426 259.1 427.226C259.1 427.226 259.1 427.226 259.1 427.126C270.2 403.826 303.4 336.526 337.2 293.426C353.5 272.626 369.9 257.526 384 255.626C384 255.626 384 255.626 384.1 255.626C385.3 255.426 386.6 255.326 387.9 255.326C391.6 255.326 395.1 256.226 398.1 257.926C398.1 257.926 398.1 257.926 398.2 257.926C398.9 258.426 402.8 261.326 407.8 269.026C409.1 271.026 410.4 273.226 411.8 275.826C417.8 286.926 424.5 304.326 429.3 330.826C430.8 339.026 432.1 348.126 433.2 358.126C435 388.826 433.8 409.026 416.4 424.226C416.7 423.326 429.5 377.826 416 327.926C414.2 321.226 411.9 314.526 409.1 307.826C409.1 307.826 365.2 324.726 344.3 363.226C340.1 370.926 336.9 379.426 335.1 388.826C334.5 392.526 334.2 396.426 334.2 400.326C334.2 440.626 366.9 473.326 407.2 473.326C435.5 473.326 460.1 457.226 472.2 433.626C472.2 433.626 472.3 433.526 472.4 433.226C472.4 433.126 472.5 433.026 472.6 432.926C472.8 432.526 473.1 431.926 473.4 431.126C473.5 431.026 473.5 430.926 473.6 430.726C473.7 430.626 473.7 430.426 473.8 430.326C473.9 430.126 474 429.826 474.1 429.526C474.1 429.426 474.2 429.226 474.3 429.126L474.8 427.826C474.9 427.526 475.1 427.126 475.2 426.826C475.6 425.826 476 424.626 476.5 423.326C476.6 423.126 476.6 422.926 476.7 422.726C476.8 422.526 476.9 422.326 476.9 422.026C477 421.726 477.1 421.526 477.1 421.226C481.1 408.926 485.5 387.926 482.3 360.826C482.3 360.826 511.2 351.526 535.9 367.226C570.7 389.426 587.8 431.026 592.2 443.126C592.7 444.626 593.1 445.626 593.2 446.126C593.2 446.226 593.2 446.226 593.3 446.326C593.3 446.426 593.3 446.426 593.3 446.426C599.5 462.126 614.8 473.126 632.6 473.126C655.9 473.126 674.8 454.226 674.8 430.926C674.8 426.626 674.1 422.226 672.8 418.126ZM188.3 451.726C171.8 451.726 157.2 443.326 148.6 430.626C143.6 421.826 140.7 411.626 140.7 400.826C140.7 399.726 140.7 398.626 140.8 397.626C141.8 379.226 151 362.926 164.9 352.526C162.6 356.726 160.8 361.126 159.3 365.726C157 373.026 155.7 380.826 155.7 388.926C155.7 414.926 168.7 437.926 188.6 451.726C188.5 451.726 188.4 451.726 188.3 451.726ZM653.9 445.726C648.5 453.626 639.5 458.826 629.2 458.826C629.1 458.826 629.1 458.826 629 458.826C641.4 450.226 649.4 435.926 649.4 419.826C649.4 414.826 648.6 409.926 647.2 405.426C646.3 402.626 645.1 399.826 643.7 397.226C652.3 403.726 658.1 413.826 658.7 425.226C658.7 425.926 658.7 426.526 658.7 427.226C658.8 433.926 657.1 440.226 653.9 445.726Z" fill="#00C8CB"/>
<path d="M88.3001 517.626C90.0001 517.626 93.4001 519.426 98.5001 523.126C103.5 526.826 106.1 529.526 106.1 531.326C106.1 534.526 107.1 539.726 109.2 547.026C111.3 554.326 113.7 560.926 116.4 566.826C119.1 563.626 123.7 557.726 130.2 549.226C136.7 540.626 142.2 533.826 146.6 528.826C151 523.826 154.4 521.326 156.5 521.326C158.6 521.326 160.9 522.526 163.3 525.026C165.7 527.526 166.8 529.926 166.8 532.426C166.8 534.926 166.4 538.026 165.7 541.926C165 545.826 164.2 549.326 163.3 552.726C162.4 556.026 161.2 560.526 159.6 566.326C158 572.026 156.8 576.526 155.9 579.926C155 583.226 154.1 586.826 153.2 590.526C152.3 594.326 151.6 597.226 151.1 599.426C150.6 601.526 150.1 603.826 149.5 606.126C148.9 608.426 148.4 610.226 147.9 611.426C147.4 612.626 146.9 613.726 146.4 614.726C145.4 616.626 144 617.626 142.2 617.626C140.4 617.626 138.6 615.826 136.8 612.226C135 608.626 134.1 604.926 134.1 601.026C134.1 591.426 136.9 578.626 142.4 562.726C140.9 564.726 138.6 567.626 135.7 571.526C132.8 575.426 130.6 578.226 129.2 579.926C127.8 581.726 126 583.726 124 586.126C120.3 590.226 116.6 592.226 113.1 592.226C108.4 592.226 105 590.326 103 586.626C102 584.726 100.7 580.426 99.0001 573.726C97.3001 567.026 96.1001 562.426 95.4001 559.926C94.2001 569.326 92.6001 577.726 90.6001 585.426C88.6001 593.026 87.3001 598.026 86.6001 600.426C86.0001 602.826 85.1001 605.626 84.0001 609.026C82.2001 614.726 80.5001 617.626 79.1001 617.626C77.5001 617.626 75.2001 615.426 72.4001 611.126C69.5001 606.826 68.1001 603.426 68.1001 600.926C68.1001 598.426 70.8001 586.226 76.1001 564.126C81.4001 542.026 84.1001 528.126 84.1001 522.326C84.4001 519.126 85.7001 517.626 88.3001 517.626Z" fill="#FF5596"/>
<path d="M246.5 566.226C250.1 566.226 252.7 566.526 254.3 567.226C255.9 567.926 256.7 569.126 256.7 570.926C256.7 573.426 252.7 575.926 244.8 578.426C245 585.326 245.1 591.926 245.1 598.226C245.1 604.526 244.6 609.226 243.6 612.426C242.6 615.526 241 617.126 238.8 617.126C236.6 617.126 234.9 616.026 233.7 613.826C232.5 611.626 231.5 607.926 230.7 602.826C229.9 597.726 229.1 591.026 228.3 582.626C219 584.726 212.4 586.426 208.3 587.626C201.2 607.226 196.5 617.026 194.1 617.026C192.2 617.026 189.7 615.726 186.5 613.226C183.4 610.726 181.8 608.026 181.8 605.326C181.8 603.826 183.6 598.926 187.1 590.926C185.6 589.926 184.2 588.526 183.1 586.626C182 584.726 181.4 582.926 181.4 581.226C181.4 578.226 185.9 575.326 194.9 572.626C195.6 570.826 196.4 568.726 197.1 566.426C197.9 564.126 199.8 558.726 203 550.126C206.1 541.626 208.6 534.426 210.4 528.726C211.2 526.026 214.1 523.426 218.9 521.126C223.8 518.726 227.6 517.626 230.3 517.626C233.5 517.626 236.3 522.026 238.8 530.826C241.3 539.626 243 551.426 244 566.126H246.5V566.226ZM215 568.526C217.7 568.126 221.7 567.726 226.9 567.126C226.6 564.526 226.2 560.026 225.6 553.626C225 547.226 224.6 542.726 224.3 539.826C222.8 545.026 219.7 554.526 215 568.526Z" fill="#FF5596"/>
<path d="M306.6 536.926C296.8 537.426 291.4 537.726 290.5 537.726C288.3 537.726 286.1 536.426 284 533.726C281.8 531.026 280.7 528.226 280.7 525.326C280.7 520.926 293.6 518.626 319.5 518.626C332.8 518.626 342.5 520.026 348.8 522.726C355.1 525.426 358.2 528.726 358.2 532.626C358.2 533.826 357.5 534.926 356.2 535.926C354.8 536.926 353.1 537.526 351 537.526C348.9 537.526 345.1 537.426 339.6 537.126C334.1 536.826 329 536.626 324.5 536.626C324.9 537.726 325 539.026 325 540.426C325 541.826 324.5 544.726 323.4 549.026C322.4 553.326 320.9 559.226 319 566.826C317.1 574.426 315 583.626 312.7 594.326C310.4 605.126 308.9 611.526 308 613.526C307.1 615.526 306.3 616.626 305.5 616.626C303.6 616.626 301.2 614.926 298.3 611.426C295.4 607.926 294 605.126 294 602.926C294 600.726 295.9 591.726 299.6 575.926C303.4 560.026 305.7 547.026 306.6 536.926Z" fill="#FF5596"/>
<path d="M390.9 536.926C381.1 537.426 375.7 537.726 374.8 537.726C372.6 537.726 370.4 536.426 368.3 533.726C366.1 531.026 365 528.226 365 525.326C365 520.926 377.9 518.626 403.8 518.626C417.1 518.626 426.8 520.026 433.1 522.726C439.4 525.426 442.5 528.726 442.5 532.626C442.5 533.826 441.8 534.926 440.5 535.926C439.1 536.926 437.4 537.526 435.3 537.526C433.2 537.526 429.4 537.426 423.9 537.126C418.4 536.826 413.3 536.626 408.8 536.626C409.2 537.726 409.3 539.026 409.3 540.426C409.3 541.826 408.8 544.726 407.7 549.026C406.7 553.326 405.2 559.226 403.3 566.826C401.4 574.426 399.3 583.626 397 594.326C394.7 605.126 393.2 611.526 392.3 613.526C391.4 615.526 390.6 616.626 389.8 616.626C387.9 616.626 385.5 614.926 382.6 611.426C379.7 607.926 378.3 605.126 378.3 602.926C378.3 600.726 380.2 591.726 383.9 575.926C387.7 560.026 390 547.026 390.9 536.926Z" fill="#FF5596"/>
<path d="M461.9 617.326C460 617.326 457.3 615.126 453.9 610.826C450.4 606.526 448.7 603.226 448.7 600.926C448.7 598.626 450.1 591.626 452.8 579.826C450.6 577.626 449.5 574.926 449.5 571.626C449.5 569.826 451.7 568.026 456 566.126C461.7 542.826 464.6 528.126 464.6 522.026C464.6 519.026 465.9 517.526 468.6 517.526C470.8 517.526 473.6 519.726 477.1 524.026C480.6 528.426 482.3 532.426 482.3 536.326C482.3 538.826 480.7 546.926 477.4 560.826C485.2 559.426 493 558.626 500.7 558.326C505.1 540.026 507.2 527.926 507.2 521.926C507.2 518.926 508.5 517.426 511.2 517.426C513.4 517.426 516.2 519.626 519.7 523.926C523.2 528.326 524.9 532.326 524.9 536.226C524.9 538.126 523.1 545.926 519.6 559.626C524.1 560.726 526.4 562.526 526.4 564.926C526.4 567.726 523 569.926 516.3 571.626C513 584.126 510.9 592.426 509.9 596.526C508.9 600.526 508.1 603.626 507.7 605.626C507.2 607.626 506.7 609.626 506.1 611.526C505.1 615.226 504.1 617.126 503.2 617.126C501 617.126 498.4 615.426 495.4 611.926C492.4 608.426 490.8 605.026 490.8 601.526C490.8 599.526 492.7 590.626 496.5 574.926C486.1 576.626 478 578.226 472.4 579.726C469.6 590.526 467.7 598.026 466.8 602.326C465.9 606.526 465.2 609.626 464.6 611.526C463.8 615.526 462.8 617.326 461.9 617.326Z" fill="#FF5596"/>
<path d="M574.6 560.126C579.4 560.126 584.6 559.926 590.1 559.326C595.6 558.826 599.1 558.626 600.4 558.626C601.7 558.626 602.8 558.926 603.5 559.626C604.3 560.226 604.7 561.026 604.7 561.926C604.7 565.926 600.9 569.126 593.4 571.426C585.9 573.826 577.8 575.126 569.3 575.526C565.8 586.526 564 593.426 564 596.326C564 597.826 564.8 598.626 566.3 598.626C576.7 598.626 587.3 597.226 598.3 594.526C602 593.526 604.2 593.026 604.7 593.026C606.4 593.026 607.3 594.226 607.3 596.726C607.3 600.026 604.9 603.226 600.1 606.226C595.3 609.326 589.2 611.726 582 613.626C574.7 615.426 567.6 616.326 560.6 616.326C556.4 616.326 552.6 614.726 549.3 611.626C545.9 608.526 544.3 604.826 544.3 600.626C544.3 596.426 546.6 585.826 551.3 568.826C556 551.826 558.5 539.026 558.7 530.426C558.6 530.126 558.6 529.626 558.6 528.826C558.6 527.526 558.8 526.526 559.1 525.826C560.1 523.326 562.9 521.626 567.4 521.026C571.9 520.326 580.1 520.026 591.9 520.026C611.5 520.026 621.3 522.226 621.3 526.526C621.3 529.326 618.9 531.326 614.1 532.426C610.8 533.126 606.3 533.826 600.6 534.426C591.8 535.426 583.9 536.926 577 538.826C577 545.026 575.9 552.126 573.7 560.226H574.6V560.126Z" fill="#FF5596"/>
<path d="M647 617.326C645.2 617.326 642.6 615.926 639.2 613.026C635.8 610.126 634.1 607.326 634.1 604.526C634.1 597.926 635.1 586.426 637 570.226C638.9 553.926 639.9 538.326 639.9 523.326C639.9 519.526 641.1 517.626 643.4 517.626C646.7 517.626 650.6 519.426 655.2 523.126C659.8 526.726 662.1 530.426 662.1 534.026C662.1 535.326 660.6 543.026 657.6 557.226C654.6 571.426 652.9 582.826 652.4 591.526C656.8 582.726 661.9 575.326 667.9 569.426C673.8 563.526 678.7 560.526 682.5 560.526C685.2 560.526 687 566.526 687.8 578.626C688.2 583.126 688.9 587.326 690 591.126C691.1 594.926 692.6 596.826 694.5 596.826C698 596.826 701.2 593.026 704 585.426C706.8 577.826 708.2 570.026 708.2 561.926C708.2 544.426 703.4 535.626 693.8 535.626C691 535.626 688.4 534.126 686 531.226C683.6 528.326 682.4 525.726 682.4 523.426C682.4 519.326 684.9 517.326 689.9 517.326C696.6 517.326 702.5 518.526 707.5 521.026C712.5 523.526 716.5 526.926 719.3 531.326C724.9 539.926 727.7 550.626 727.7 563.226C727.7 571.726 726.2 580.226 723.2 588.526C720.2 596.826 716 603.726 710.7 609.126C705.4 614.626 699.7 617.326 693.7 617.326C682.6 617.326 676.3 607.926 674.8 589.126L670.6 595.126C660.4 609.926 652.6 617.326 647 617.326Z" fill="#FF5596"/>
<path d="M96.3001 510.026C98.0001 510.026 101.4 511.826 106.5 515.526C111.5 519.226 114.1 521.926 114.1 523.726C114.1 526.926 115.1 532.126 117.2 539.426C119.3 546.726 121.7 553.326 124.4 559.226C127.1 556.026 131.7 550.126 138.2 541.626C144.7 533.026 150.2 526.226 154.6 521.226C159 516.226 162.4 513.726 164.5 513.726C166.6 513.726 168.9 514.926 171.3 517.426C173.7 519.926 174.8 522.326 174.8 524.826C174.8 527.326 174.4 530.426 173.7 534.326C173 538.226 172.2 541.726 171.3 545.126C170.4 548.426 169.2 552.926 167.6 558.726C166 564.426 164.8 568.926 163.9 572.326C163 575.626 162.1 579.226 161.2 582.926C160.3 586.726 159.6 589.626 159.1 591.826C158.6 593.926 158.1 596.226 157.5 598.526C156.9 600.826 156.4 602.626 155.9 603.826C155.4 605.026 154.9 606.126 154.4 607.126C153.4 609.026 152 610.026 150.2 610.026C148.4 610.026 146.6 608.226 144.8 604.626C143 601.026 142.1 597.326 142.1 593.426C142.1 583.826 144.9 571.026 150.4 555.126C148.9 557.126 146.6 560.026 143.7 563.926C140.8 567.826 138.6 570.626 137.2 572.326C135.8 574.126 134 576.126 132 578.526C128.3 582.626 124.6 584.626 121.1 584.626C116.4 584.626 113 582.726 111 579.026C110 577.126 108.7 572.826 107 566.126C105.3 559.426 104.1 554.826 103.4 552.326C102.2 561.726 100.6 570.126 98.6001 577.826C96.6001 585.426 95.3001 590.426 94.6001 592.826C94.0001 595.226 93.1001 598.026 92.0001 601.426C90.2001 607.126 88.5001 610.026 87.1001 610.026C85.5001 610.026 83.2001 607.826 80.4001 603.526C77.5001 599.226 76.1001 595.826 76.1001 593.326C76.1001 590.826 78.8001 578.626 84.1001 556.526C89.4001 534.426 92.1001 520.526 92.1001 514.726C92.4001 511.526 93.7001 510.026 96.3001 510.026Z" fill="#00C8CB"/>
<path d="M254.5 558.726C258.1 558.726 260.7 559.026 262.3 559.726C263.9 560.426 264.7 561.626 264.7 563.426C264.7 565.926 260.7 568.426 252.8 570.926C253 577.826 253.1 584.426 253.1 590.726C253.1 597.026 252.6 601.726 251.6 604.926C250.6 608.026 249 609.626 246.8 609.626C244.6 609.626 242.9 608.526 241.7 606.326C240.5 604.126 239.5 600.426 238.7 595.326C237.9 590.226 237.1 583.526 236.3 575.126C227 577.226 220.4 578.926 216.3 580.126C209.2 599.726 204.5 609.526 202.1 609.526C200.2 609.526 197.7 608.226 194.5 605.726C191.4 603.226 189.8 600.526 189.8 597.826C189.8 596.326 191.6 591.426 195.1 583.426C193.6 582.426 192.2 581.026 191.1 579.126C190 577.226 189.4 575.426 189.4 573.726C189.4 570.726 193.9 567.826 202.9 565.126C203.6 563.326 204.4 561.226 205.1 558.926C205.9 556.626 207.8 551.226 211 542.626C214.1 534.126 216.6 526.926 218.4 521.226C219.2 518.526 222.1 515.926 226.9 513.626C231.8 511.226 235.6 510.126 238.3 510.126C241.5 510.126 244.3 514.526 246.8 523.326C249.3 532.126 251 543.926 252 558.626H254.5V558.726ZM223 561.026C225.7 560.626 229.7 560.226 234.9 559.626C234.6 557.026 234.2 552.526 233.6 546.126C233 539.726 232.6 535.226 232.3 532.326C230.8 537.426 227.7 547.026 223 561.026Z" fill="#00C8CB"/>
<path d="M314.6 529.426C304.8 529.926 299.4 530.226 298.5 530.226C296.3 530.226 294.1 528.926 292 526.226C289.8 523.526 288.7 520.726 288.7 517.826C288.7 513.426 301.6 511.126 327.5 511.126C340.8 511.126 350.5 512.526 356.8 515.226C363.1 517.926 366.2 521.226 366.2 525.126C366.2 526.326 365.5 527.426 364.2 528.426C362.8 529.426 361.1 530.026 359 530.026C356.9 530.026 353.1 529.926 347.6 529.626C342.1 529.326 337 529.126 332.5 529.126C332.9 530.226 333 531.526 333 532.926C333 534.426 332.5 537.226 331.4 541.526C330.4 545.826 328.9 551.726 327 559.326C325.1 566.926 323 576.126 320.7 586.826C318.4 597.626 316.9 604.026 316 606.026C315.1 608.026 314.3 609.126 313.5 609.126C311.6 609.126 309.2 607.426 306.3 603.926C303.4 600.426 302 597.626 302 595.426C302 593.226 303.9 584.226 307.6 568.426C311.4 552.426 313.7 539.426 314.6 529.426Z" fill="#00C8CB"/>
<path d="M398.9 529.426C389.1 529.926 383.7 530.226 382.8 530.226C380.6 530.226 378.4 528.926 376.3 526.226C374.1 523.526 373 520.726 373 517.826C373 513.426 385.9 511.126 411.8 511.126C425.1 511.126 434.8 512.526 441.1 515.226C447.4 517.926 450.5 521.226 450.5 525.126C450.5 526.326 449.8 527.426 448.5 528.426C447.1 529.426 445.4 530.026 443.3 530.026C441.2 530.026 437.4 529.926 431.9 529.626C426.4 529.326 421.3 529.126 416.8 529.126C417.2 530.226 417.3 531.526 417.3 532.926C417.3 534.426 416.8 537.226 415.7 541.526C414.7 545.826 413.2 551.726 411.3 559.326C409.4 566.926 407.3 576.126 405 586.826C402.7 597.626 401.2 604.026 400.3 606.026C399.4 608.026 398.6 609.126 397.8 609.126C395.9 609.126 393.5 607.426 390.6 603.926C387.7 600.426 386.3 597.626 386.3 595.426C386.3 593.226 388.2 584.226 391.9 568.426C395.7 552.426 398 539.426 398.9 529.426Z" fill="#00C8CB"/>
<path d="M469.9 609.826C468 609.826 465.3 607.626 461.9 603.326C458.4 599.026 456.7 595.726 456.7 593.426C456.7 591.126 458.1 584.126 460.8 572.326C458.6 570.126 457.5 567.426 457.5 564.126C457.5 562.326 459.7 560.526 464 558.626C469.7 535.326 472.6 520.626 472.6 514.526C472.6 511.526 473.9 510.026 476.6 510.026C478.8 510.026 481.6 512.226 485.1 516.526C488.6 520.926 490.3 524.926 490.3 528.826C490.3 531.326 488.7 539.426 485.4 553.326C493.2 551.926 501 551.126 508.7 550.826C513.1 532.526 515.2 520.426 515.2 514.426C515.2 511.426 516.5 509.926 519.2 509.926C521.4 509.926 524.2 512.126 527.7 516.426C531.2 520.826 532.9 524.826 532.9 528.726C532.9 530.626 531.1 538.426 527.6 552.126C532.1 553.226 534.4 555.026 534.4 557.426C534.4 560.226 531 562.426 524.3 564.126C521 576.626 518.9 584.926 517.9 589.026C516.9 593.026 516.1 596.126 515.7 598.126C515.2 600.126 514.7 602.126 514.1 604.026C513.1 607.726 512.1 609.626 511.2 609.626C509 609.626 506.4 607.926 503.4 604.426C500.4 600.926 498.8 597.526 498.8 594.026C498.8 592.026 500.7 583.126 504.5 567.426C494.1 569.126 486 570.726 480.4 572.226C477.6 583.026 475.7 590.526 474.8 594.826C473.9 599.026 473.2 602.126 472.6 604.026C471.8 607.926 470.8 609.826 469.9 609.826Z" fill="#00C8CB"/>
<path d="M582.6 552.526C587.4 552.526 592.6 552.326 598.1 551.826C603.6 551.326 607.1 551.026 608.4 551.026C609.7 551.026 610.8 551.326 611.5 552.026C612.3 552.626 612.7 553.426 612.7 554.326C612.7 558.326 608.9 561.526 601.4 563.826C593.9 566.226 585.8 567.526 577.3 567.926C573.8 578.926 572 585.826 572 588.726C572 590.226 572.8 591.026 574.3 591.026C584.7 591.026 595.3 589.626 606.3 586.926C610 585.926 612.2 585.426 612.7 585.426C614.4 585.426 615.3 586.626 615.3 589.126C615.3 592.426 612.9 595.626 608.1 598.626C603.3 601.726 597.2 604.126 590 606.026C582.7 607.826 575.6 608.726 568.6 608.726C564.4 608.726 560.6 607.126 557.3 604.026C553.9 600.926 552.3 597.226 552.3 593.026C552.3 588.826 554.6 578.226 559.3 561.226C564 544.226 566.5 531.426 566.7 522.826C566.6 522.526 566.6 522.026 566.6 521.226C566.6 519.926 566.8 518.926 567.1 518.226C568.1 515.726 570.9 514.026 575.4 513.426C579.9 512.726 588.1 512.426 599.9 512.426C619.5 512.426 629.3 514.626 629.3 518.926C629.3 521.726 626.9 523.726 622.1 524.826C618.8 525.526 614.3 526.226 608.6 526.826C599.8 527.826 591.9 529.326 585 531.226C585 537.426 583.9 544.526 581.7 552.626H582.6V552.526Z" fill="#00C8CB"/>
<path d="M655 609.826C653.2 609.826 650.6 608.426 647.2 605.526C643.8 602.626 642.1 599.826 642.1 597.026C642.1 590.426 643.1 578.926 645 562.726C646.9 546.426 647.9 530.826 647.9 515.826C647.9 512.026 649.1 510.126 651.4 510.126C654.7 510.126 658.6 511.926 663.2 515.626C667.8 519.226 670.1 522.926 670.1 526.526C670.1 527.826 668.6 535.526 665.6 549.726C662.6 563.926 660.9 575.326 660.4 584.026C664.8 575.226 669.9 567.826 675.9 561.926C681.8 556.026 686.7 553.026 690.5 553.026C693.2 553.026 695 559.026 695.8 571.126C696.2 575.626 696.9 579.826 698 583.626C699.1 587.426 700.6 589.326 702.5 589.326C706 589.326 709.2 585.526 712 577.926C714.8 570.326 716.2 562.526 716.2 554.426C716.2 536.926 711.4 528.126 701.8 528.126C699 528.126 696.4 526.626 694 523.726C691.6 520.826 690.4 518.226 690.4 515.926C690.4 511.826 692.9 509.826 697.9 509.826C704.6 509.826 710.5 511.026 715.5 513.526C720.5 516.026 724.5 519.426 727.3 523.826C732.9 532.426 735.7 543.126 735.7 555.726C735.7 564.226 734.2 572.726 731.2 581.026C728.2 589.326 724 596.226 718.7 601.626C713.4 607.126 707.7 609.826 701.7 609.826C690.6 609.826 684.3 600.426 682.8 581.626L678.6 587.626C668.4 602.326 660.6 609.826 655 609.826Z" fill="#00C8CB"/>
</svg>
